<?xml version="1.0" encoding="UTF-8"?>
<svg id="_Слой_2" data-name="Слой 2" xmlns="http://www.w3.org/2000/svg" viewBox="0 0 54.65 54.65">
  <defs>
    <style>
      .cls-1 {
        fill: none;
        stroke: #000;
        stroke-miterlimit: 10;
        stroke-width: 2px;
      }
    </style>
  </defs>
  <g id="_Слой_1-2" data-name="Слой 1">
    <g>
      <path class="cls-1" d="m24.4,3.93s0-2.93,2.93-2.93,2.93,2.93,2.93,2.93v2.93s0,2.93-2.93,2.93-2.93-2.93-2.93-2.93v-2.93Zm26.33,20.48s2.93,0,2.93,2.93-2.93,2.93-2.93,2.93h-2.93s-2.93,0-2.93-2.93,2.93-2.93,2.93-2.93h2.93Zm-43.88,0s2.93,0,2.93,2.93-2.93,2.93-2.93,2.93h-2.93s-2.93,0-2.93-2.93,2.93-2.93,2.93-2.93h2.93Zm7.49-12.73s2.07,2.07,0,4.14-4.14,0-4.14,0l-2.07-2.07s-2.07-2.07,0-4.14c2.07-2.07,4.14,0,4.14,0l2.07,2.07Zm30.71,30.71s2.07,2.07,0,4.14c-2.07,2.07-4.14,0-4.14,0l-2.07-2.07s-2.07-2.07,0-4.14c2.07-2.07,4.14,0,4.14,0l2.07,2.07h0Zm-.6-26.58s-2.07,2.07-4.14,0,0-4.14,0-4.14l2.07-2.07s2.07-2.07,4.14,0,0,4.14,0,4.14l-2.07,2.07h0Zm-30.71,30.71s-2.07,2.07-4.14,0,0-4.14,0-4.14l2.07-2.07s2.07-2.07,4.14,0,0,4.14,0,4.14l-2.07,2.07h0Zm10.66,1.29s0-2.93,2.93-2.93,2.93,2.93,2.93,2.93v2.93s0,2.93-2.93,2.93-2.93-2.93-2.93-2.93v-2.93Z"/>
      <circle class="cls-1" cx="27.33" cy="27.33" r="14.63"/>
    </g>
  </g>
</svg>