<?xml version="1.0" encoding="UTF-8"?>
<svg xmlns="http://www.w3.org/2000/svg" xmlns:xlink="http://www.w3.org/1999/xlink" viewBox="0 0 1738 513.5">
  <defs>
    <style>
      .cls-1 {
        letter-spacing: -.03em;
      }

      .cls-2 {
        letter-spacing: -.01em;
      }

      .cls-3 {
        fill: #fff;
      }

      .cls-4 {
        font-size: 12px;
      }

      .cls-4, .cls-5 {
        font-family: MontserratRoman-Medium, Montserrat;
        font-variation-settings: 'wght' 500;
        font-weight: 500;
      }

      .cls-6 {
        fill: #7ab9e8;
      }

      .cls-7 {
        letter-spacing: 0em;
      }

      .cls-8 {
        letter-spacing: -.01em;
      }

      .cls-9 {
        letter-spacing: -.02em;
      }

      .cls-10 {
        letter-spacing: 0em;
      }

      .cls-11 {
        font-family: Montserrat-ThinItalic, Montserrat;
        font-style: italic;
      }

      .cls-11, .cls-5, .cls-12, .cls-13 {
        font-size: 10px;
      }

      .cls-11, .cls-13 {
        font-variation-settings: 'wght' 100;
        font-weight: 200;
      }

      .cls-14 {
        letter-spacing: -.01em;
      }

      .cls-15 {
        letter-spacing: -.02em;
      }

      .cls-16 {
        letter-spacing: -.02em;
      }

      .cls-17 {
        fill: #98c8ed;
      }

      .cls-12 {
        font-family: MontserratRoman-Light, Montserrat;
        font-variation-settings: 'wght' 300;
        font-weight: 300;
      }

      .cls-18 {
        fill: #211f1e;
      }

      .cls-19 {
        letter-spacing: 0em;
      }

      .cls-20 {
        fill: #cd91e6;
      }

      .cls-21 {
        fill: #e8b7c4;
      }

      .cls-22 {
        letter-spacing: 0em;
      }

      .cls-23 {
        letter-spacing: -.04em;
      }

      .cls-24 {
        letter-spacing: -.01em;
      }

      .cls-25 {
        letter-spacing: -.02em;
      }

      .cls-26 {
        letter-spacing: 0em;
      }

      .cls-27 {
        letter-spacing: 0em;
      }

      .cls-28 {
        fill: none;
        stroke: #000;
        stroke-miterlimit: 10;
        stroke-width: 2px;
      }

      .cls-29 {
        letter-spacing: -.01em;
      }

      .cls-13 {
        font-family: Montserrat-Thin, Montserrat;
      }

      .cls-30 {
        fill: #e8a8a2;
      }

      .cls-31 {
        letter-spacing: 0em;
      }

      .cls-32 {
        fill: #ffac33;
      }

      .cls-33 {
        fill: #f4fffd;
      }

      .cls-34 {
        letter-spacing: -.01em;
      }

      .cls-35 {
        fill: #e691ad;
      }

      .cls-36 {
        letter-spacing: -.02em;
      }

      .cls-37 {
        letter-spacing: 0em;
      }

      .cls-38 {
        fill: #f59558;
      }

      .cls-39 {
        letter-spacing: -.01em;
      }

      .cls-40 {
        letter-spacing: -.02em;
      }

      .cls-41 {
        fill: #d6a5e6;
      }

      .cls-42 {
        fill: #e692e0;
      }
    </style>
    <image id="image" width="512" height="512" xlink:href="web/plantsWithFriend/plants/content/plantPhotos/painted1.png"/>
    <image id="image-2" width="512" height="512" xlink:href="../Downloads/pngwing.com.png"/>
  </defs>
  <g id="_Слой_1" data-name="Слой 1">
    <g>
      <rect class="cls-33" x="779.67" y="2.5" width="295" height="395" rx="17.5" ry="17.5"/>
      <path class="cls-3" d="m1057.17,5c8.27,0,15,6.73,15,15v360c0,8.27-6.73,15-15,15h-260c-8.27,0-15-6.73-15-15V20c0-8.27,6.73-15,15-15h260m0-5h-260c-11.05,0-20,8.95-20,20v360c0,11.05,8.95,20,20,20h260c11.05,0,20-8.95,20-20V20c0-11.05-8.95-20-20-20h0Z"/>
    </g>
    <g>
      <rect class="cls-33" x="326.17" y="116" width="295" height="395" rx="17.5" ry="17.5"/>
      <path class="cls-3" d="m603.67,118.5c8.27,0,15,6.73,15,15v360c0,8.27-6.73,15-15,15h-260c-8.27,0-15-6.73-15-15V133.5c0-8.27,6.73-15,15-15h260m0-5h-260c-11.05,0-20,8.95-20,20v360c0,11.05,8.95,20,20,20h260c11.05,0,20-8.95,20-20V133.5c0-11.05-8.95-20-20-20h0Z"/>
    </g>
    <g>
      <path class="cls-17" d="m379.67,193.87c-3.1,0-6.06-.63-8.75-1.77-11.16-4.74-15.01-18.66-8.05-28.6l16.8-24,16.8,24c6.95,9.94,3.11,23.85-8.05,28.6-2.69,1.14-5.64,1.77-8.75,1.77Z"/>
      <path class="cls-6" d="m396.47,163.5l-16.8-24v54.37c3.1,0,6.06-.63,8.75-1.77,11.16-4.74,15.01-18.66,8.05-28.6Z"/>
    </g>
    <g>
      <path class="cls-17" d="m424.67,193.77c-3.1,0-6.06-.63-8.75-1.77-11.16-4.74-15.01-18.66-8.05-28.6l16.8-24,16.8,24c6.95,9.94,3.11,23.85-8.05,28.6-2.69,1.14-5.64,1.77-8.75,1.77Z"/>
      <path class="cls-6" d="m441.47,163.4l-16.8-24v54.37c3.1,0,6.06-.63,8.75-1.77,11.16-4.74,15.01-18.66,8.05-28.6Z"/>
    </g>
    <g>
      <path class="cls-17" d="m472.67,193.61c-3.1,0-6.06-.63-8.75-1.77-11.16-4.74-15.01-18.66-8.05-28.6l16.8-24,16.8,24c6.95,9.94,3.11,23.85-8.05,28.6-2.69,1.14-5.64,1.77-8.75,1.77Z"/>
      <path class="cls-6" d="m489.47,163.24l-16.8-24v54.37c3.1,0,6.06-.63,8.75-1.77,11.16-4.74,15.01-18.66,8.05-28.6Z"/>
    </g>
    <g>
      <path class="cls-17" d="m518.67,193.52c-3.1,0-6.06-.63-8.75-1.77-11.16-4.74-15.01-18.66-8.05-28.6l16.8-24,16.8,24c6.95,9.94,3.11,23.85-8.05,28.6-2.69,1.14-5.64,1.77-8.75,1.77Z"/>
      <path class="cls-6" d="m535.47,163.15l-16.8-24v54.37c3.1,0,6.06-.63,8.75-1.77,11.16-4.74,15.01-18.66,8.05-28.6Z"/>
    </g>
    <path d="m566.67,142.64l15.16,21.66c3,4.29,3.89,9.63,2.45,14.66-1.42,4.95-4.94,8.94-9.65,10.94-2.52,1.07-5.2,1.61-7.97,1.61s-5.44-.54-7.97-1.61c-4.71-2-8.23-5.99-9.65-10.94-1.44-5.03-.55-10.38,2.45-14.66l15.16-21.66m0-3.49l-16.8,24c-6.95,9.94-3.11,23.85,8.05,28.6,2.69,1.14,5.64,1.77,8.75,1.77s6.06-.63,8.75-1.77c11.16-4.74,15.01-18.66,8.05-28.6l-16.8-24h0Z"/>
    <g>
      <path class="cls-38" d="m406.14,257.58c.04-.24.07-.47.07-.72v-25.66h-9.24v25.65c0,.24.03.48.07.72-2.8,1.59-4.69,4.59-4.69,8.03,0,5.1,4.13,9.24,9.24,9.24s9.24-4.13,9.24-9.24c0-3.44-1.9-6.44-4.7-8.02h0Z"/>
      <path class="cls-18" d="m408.05,256.62v-43.66c0-3.56-2.9-6.47-6.47-6.47s-6.47,2.9-6.47,6.47v43.65c-2.87,2.07-4.61,5.42-4.61,8.98,0,6.11,4.97,11.08,11.08,11.08s11.09-4.96,11.09-11.07c0-3.56-1.74-6.91-4.62-8.98h0Zm-6.47,16.37c-4.08,0-7.39-3.31-7.39-7.39,0-2.62,1.42-5.06,3.69-6.39.57-.33.92-.94.92-1.6v-3.33h.92c.51,0,.92-.42.92-.92s-.42-.92-.92-.92h-.92v-3.69h.92c.51,0,.92-.42.92-.92s-.42-.92-.92-.92h-.92v-3.69h.92c.51,0,.92-.42.92-.92s-.42-.92-.92-.92h-.92v-3.69h.92c.51,0,.92-.42.92-.92s-.42-.92-.92-.92h-.92v-3.69h.92c.51,0,.92-.42.92-.92s-.42-.92-.92-.92h-.92v-3.69h.92c.51,0,.92-.42.92-.92s-.42-.92-.92-.92h-.92v-3.69h.92c.51,0,.92-.42.92-.92s-.42-.92-.92-.92h-.92v-3.73h.92c.51,0,.92-.42.92-.92s-.42-.92-.92-.92h-.92v-.69c0-1.52,1.24-2.77,2.77-2.77s2.77,1.24,2.77,2.77v44.65c0,.66.35,1.27.92,1.6,2.28,1.32,3.69,3.77,3.69,6.39,0,4.07-3.31,7.38-7.39,7.38Z"/>
    </g>
    <g>
      <path class="cls-38" d="m452.35,257.62c.04-.24.07-.47.07-.72v-25.66h-9.24v25.65c0,.24.03.48.07.72-2.8,1.59-4.69,4.59-4.69,8.03,0,5.1,4.13,9.24,9.24,9.24s9.24-4.13,9.24-9.24c0-3.44-1.9-6.44-4.7-8.02h0Z"/>
      <path class="cls-18" d="m454.27,256.66v-43.66c0-3.56-2.9-6.47-6.47-6.47s-6.47,2.9-6.47,6.47v43.65c-2.87,2.07-4.61,5.42-4.61,8.98,0,6.11,4.97,11.08,11.08,11.08s11.09-4.96,11.09-11.07c0-3.56-1.74-6.91-4.62-8.98h0Zm-6.47,16.37c-4.08,0-7.39-3.31-7.39-7.39,0-2.62,1.42-5.06,3.69-6.39.57-.33.92-.94.92-1.6v-3.33h.92c.51,0,.92-.42.92-.92s-.42-.92-.92-.92h-.92v-3.69h.92c.51,0,.92-.42.92-.92s-.42-.92-.92-.92h-.92v-3.69h.92c.51,0,.92-.42.92-.92s-.42-.92-.92-.92h-.92v-3.69h.92c.51,0,.92-.42.92-.92s-.42-.92-.92-.92h-.92v-3.69h.92c.51,0,.92-.42.92-.92s-.42-.92-.92-.92h-.92v-3.69h.92c.51,0,.92-.42.92-.92s-.42-.92-.92-.92h-.92v-3.69h.92c.51,0,.92-.42.92-.92s-.42-.92-.92-.92h-.92v-3.73h.92c.51,0,.92-.42.92-.92s-.42-.92-.92-.92h-.92v-.69c0-1.52,1.24-2.77,2.77-2.77s2.77,1.24,2.77,2.77v44.65c0,.66.35,1.27.92,1.6,2.28,1.32,3.69,3.77,3.69,6.39,0,4.07-3.31,7.38-7.39,7.38Z"/>
    </g>
    <g>
      <path class="cls-38" d="m500.35,257.62c.04-.24.07-.47.07-.72v-25.66h-9.24v25.65c0,.24.03.48.07.72-2.8,1.59-4.69,4.59-4.69,8.03,0,5.1,4.13,9.24,9.24,9.24s9.24-4.13,9.24-9.24c0-3.44-1.9-6.44-4.7-8.02h0Z"/>
      <path class="cls-18" d="m502.27,256.66v-43.66c0-3.56-2.9-6.47-6.47-6.47s-6.47,2.9-6.47,6.47v43.65c-2.87,2.07-4.61,5.42-4.61,8.98,0,6.11,4.97,11.08,11.08,11.08s11.09-4.96,11.09-11.07c0-3.56-1.74-6.91-4.62-8.98h0Zm-6.47,16.37c-4.08,0-7.39-3.31-7.39-7.39,0-2.62,1.42-5.06,3.69-6.39.57-.33.92-.94.92-1.6v-3.33h.92c.51,0,.92-.42.92-.92s-.42-.92-.92-.92h-.92v-3.69h.92c.51,0,.92-.42.92-.92s-.42-.92-.92-.92h-.92v-3.69h.92c.51,0,.92-.42.92-.92s-.42-.92-.92-.92h-.92v-3.69h.92c.51,0,.92-.42.92-.92s-.42-.92-.92-.92h-.92v-3.69h.92c.51,0,.92-.42.92-.92s-.42-.92-.92-.92h-.92v-3.69h.92c.51,0,.92-.42.92-.92s-.42-.92-.92-.92h-.92v-3.69h.92c.51,0,.92-.42.92-.92s-.42-.92-.92-.92h-.92v-3.73h.92c.51,0,.92-.42.92-.92s-.42-.92-.92-.92h-.92v-.69c0-1.52,1.24-2.77,2.77-2.77s2.77,1.24,2.77,2.77v44.65c0,.66.35,1.27.92,1.6,2.28,1.32,3.69,3.77,3.69,6.39,0,4.07-3.31,7.38-7.39,7.38Z"/>
    </g>
    <path class="cls-18" d="m549.09,256.78v-43.33c0-3.54-2.88-6.42-6.42-6.42s-6.42,2.88-6.42,6.42v43.32c-2.85,2.06-4.58,5.38-4.58,8.92,0,6.07,4.94,11,11,11s11-4.92,11-10.99c0-3.54-1.73-6.86-4.59-8.92h0Zm-6.42,16.25c-4.05,0-7.33-3.29-7.33-7.33,0-2.6,1.41-5.02,3.67-6.34.57-.32.91-.93.91-1.59v-3.3h.91c.51,0,.91-.41.91-.91s-.41-.91-.91-.91h-.91v-3.67h.91c.51,0,.91-.41.91-.91s-.41-.91-.91-.91h-.91v-3.67h.91c.51,0,.91-.41.91-.91s-.41-.91-.91-.91h-.91v-3.67h.91c.51,0,.91-.41.91-.91s-.41-.91-.91-.91h-.91v-3.67h.91c.51,0,.91-.41.91-.91s-.41-.91-.91-.91h-.91v-3.67h.91c.51,0,.91-.41.91-.91s-.41-.91-.91-.91h-.91v-3.67h.91c.51,0,.91-.41.91-.91s-.41-.91-.91-.91h-.91v-3.7h.91c.51,0,.91-.41.91-.91s-.41-.91-.91-.91h-.91v-.69c0-1.51,1.23-2.75,2.75-2.75s2.75,1.23,2.75,2.75v44.32c0,.66.35,1.26.91,1.59,2.27,1.31,3.67,3.74,3.67,6.34,0,4.04-3.29,7.32-7.33,7.32Z"/>
    <g>
      <path class="cls-32" d="m407.15,294.5s0-3,3-3,3,3,3,3v3s0,3-3,3-3-3-3-3v-3Zm27,21s3,0,3,3-3,3-3,3h-3s-3,0-3-3,3-3,3-3h3Zm-45,0s3,0,3,3-3,3-3,3h-3s-3,0-3-3,3-3,3-3h3Zm7.68-13.06s2.12,2.12,0,4.24-4.24,0-4.24,0l-2.12-2.12s-2.12-2.12,0-4.24c2.12-2.12,4.24,0,4.24,0l2.12,2.12Zm31.5,31.5s2.12,2.12,0,4.24c-2.12,2.12-4.24,0-4.24,0l-2.12-2.12s-2.12-2.12,0-4.24,4.24,0,4.24,0l2.12,2.12h0Zm-.62-27.26s-2.12,2.12-4.24,0,0-4.24,0-4.24l2.12-2.12s2.12-2.12,4.24,0,0,4.24,0,4.24l-2.12,2.12h0Zm-31.5,31.5s-2.12,2.12-4.24,0,0-4.24,0-4.24l2.12-2.12s2.12-2.12,4.24,0,0,4.24,0,4.24l-2.12,2.12h0Zm10.94,1.32s0-3,3-3,3,3,3,3v3s0,3-3,3-3-3-3-3v-3Z"/>
      <circle class="cls-32" cx="410.15" cy="318.5" r="15"/>
    </g>
    <g>
      <path class="cls-32" d="m469.59,294.8s0-3,3-3,3,3,3,3v3s0,3-3,3-3-3-3-3v-3Zm27,21s3,0,3,3-3,3-3,3h-3s-3,0-3-3,3-3,3-3h3Zm-45,0s3,0,3,3-3,3-3,3h-3s-3,0-3-3,3-3,3-3h3Zm7.68-13.06s2.12,2.12,0,4.24-4.24,0-4.24,0l-2.12-2.12s-2.12-2.12,0-4.24c2.12-2.12,4.24,0,4.24,0l2.12,2.12Zm31.5,31.5s2.12,2.12,0,4.24c-2.12,2.12-4.24,0-4.24,0l-2.12-2.12s-2.12-2.12,0-4.24,4.24,0,4.24,0l2.12,2.12h0Zm-.62-27.26s-2.12,2.12-4.24,0,0-4.24,0-4.24l2.12-2.12s2.12-2.12,4.24,0,0,4.24,0,4.24l-2.12,2.12h0Zm-31.5,31.5s-2.12,2.12-4.24,0,0-4.24,0-4.24l2.12-2.12s2.12-2.12,4.24,0,0,4.24,0,4.24l-2.12,2.12h0Zm10.94,1.32s0-3,3-3,3,3,3,3v3s0,3-3,3-3-3-3-3v-3Z"/>
      <circle class="cls-32" cx="472.59" cy="318.8" r="15"/>
    </g>
    <g>
      <path class="cls-28" d="m533.42,295.43s0-2.93,2.93-2.93,2.93,2.93,2.93,2.93v2.93s0,2.93-2.93,2.93-2.93-2.93-2.93-2.93v-2.93Zm26.33,20.48s2.93,0,2.93,2.93-2.93,2.93-2.93,2.93h-2.93s-2.93,0-2.93-2.93,2.93-2.93,2.93-2.93h2.93Zm-43.88,0s2.93,0,2.93,2.93-2.93,2.93-2.93,2.93h-2.93s-2.93,0-2.93-2.93,2.93-2.93,2.93-2.93h2.93Zm7.49-12.73s2.07,2.07,0,4.14-4.14,0-4.14,0l-2.07-2.07s-2.07-2.07,0-4.14c2.07-2.07,4.14,0,4.14,0l2.07,2.07Zm30.71,30.71s2.07,2.07,0,4.14c-2.07,2.07-4.14,0-4.14,0l-2.07-2.07s-2.07-2.07,0-4.14c2.07-2.07,4.14,0,4.14,0l2.07,2.07h0Zm-.6-26.58s-2.07,2.07-4.14,0,0-4.14,0-4.14l2.07-2.07s2.07-2.07,4.14,0,0,4.14,0,4.14l-2.07,2.07h0Zm-30.71,30.71s-2.07,2.07-4.14,0,0-4.14,0-4.14l2.07-2.07s2.07-2.07,4.14,0,0,4.14,0,4.14l-2.07,2.07h0Zm10.66,1.29s0-2.93,2.93-2.93,2.93,2.93,2.93,2.93v2.93s0,2.93-2.93,2.93-2.93-2.93-2.93-2.93v-2.93Z"/>
      <circle class="cls-28" cx="536.35" cy="318.83" r="14.63"/>
    </g>
    <text class="cls-12" transform="translate(391.63 409.41)"><tspan x="0" y="0">Фил</tspan><tspan class="cls-26" x="22.15" y="0">о</tspan><tspan x="28.45" y="0">дендрон с</tspan><tspan class="cls-39" x="82.02" y="0">к</tspan><tspan x="87.6" y="0">анденс Б</tspan><tspan class="cls-26" x="134.62" y="0">р</tspan><tspan class="cls-24" x="141.44" y="0">а</tspan><tspan x="147.08" y="0">зил - </tspan><tspan class="cls-9" x="-6.44" y="12">к</tspan><tspan class="cls-7" x="-.95" y="12">омпа</tspan><tspan class="cls-24" x="25.7" y="12">к</tspan><tspan class="cls-37" x="31.25" y="12">тное </tspan><tspan class="cls-31" x="57.49" y="12">р</tspan><tspan x="64.31" y="12">а</tspan><tspan class="cls-34" x="70.08" y="12">с</tspan><tspan class="cls-40" x="75.53" y="12">т</tspan><tspan x="79.85" y="12">ение с з</tspan><tspan class="cls-8" x="121.52" y="12">е</tspan><tspan x="127.48" y="12">леными и </tspan><tspan class="cls-16" x="6.5" y="24">ж</tspan><tspan class="cls-24" x="14.38" y="24">е</tspan><tspan class="cls-7" x="20.34" y="24">лтыми ли</tspan><tspan class="cls-29" x="69.09" y="24">с</tspan><tspan class="cls-37" x="74.54" y="24">т</tspan><tspan class="cls-23" x="79.1" y="24">ь</tspan><tspan class="cls-7" x="84.24" y="24">ями, ид</tspan><tspan class="cls-2" x="122.69" y="24">е</tspan><tspan x="128.63" y="24">альное </tspan><tspan x="22.42" y="36">для п</tspan><tspan class="cls-26" x="50.35" y="36">о</tspan><tspan x="56.65" y="36">двесных </tspan><tspan class="cls-25" x="102.78" y="36">г</tspan><tspan x="107.18" y="36">орш</tspan><tspan class="cls-36" x="129.52" y="36">к</tspan><tspan x="135.01" y="36">ов. </tspan><tspan x="-19.82" y="48">Легкий </tspan><tspan class="cls-1" x="20.61" y="48">у</tspan><tspan class="cls-16" x="25.77" y="48">х</tspan><tspan class="cls-26" x="30.71" y="48">о</tspan><tspan class="cls-37" x="37.01" y="48">д и яркий акцент в ин</tspan><tspan class="cls-25" x="150.37" y="48">т</tspan><tspan x="154.69" y="48">ерьере.</tspan></text>
  </g>
  <g id="_Слой_2" data-name="Слой 2">
    <g>
      <rect class="cls-33" x="1440.5" y="2.93" width="295" height="395" rx="17.5" ry="17.5"/>
      <path class="cls-3" d="m1718,5.43c8.27,0,15,6.73,15,15v360c0,8.27-6.73,15-15,15h-260c-8.27,0-15-6.73-15-15V20.43c0-8.27,6.73-15,15-15h260m0-5h-260c-11.05,0-20,8.95-20,20v360c0,11.05,8.95,20,20,20h260c11.05,0,20-8.95,20-20V20.43c0-11.05-8.95-20-20-20h0Z"/>
    </g>
    <use transform="translate(1491.5 108.93) scale(.4)" xlink:href="#image"/>
    <text class="cls-4" transform="translate(1490.14 64.8)"><tspan x="0" y="0">Фил</tspan><tspan class="cls-19" x="27.13" y="0">о</tspan><tspan x="34.78" y="0">дендрон с</tspan><tspan class="cls-10" x="100.62" y="0">к</tspan><tspan x="107.67" y="0">анденс Б</tspan><tspan class="cls-22" x="165.44" y="0">р</tspan><tspan class="cls-27" x="173.64" y="0">а</tspan><tspan x="180.6" y="0">зил</tspan></text>
    <text class="cls-11" transform="translate(1516.49 82.21)"><tspan x="0" y="0">Philodend</tspan><tspan class="cls-15" x="50.87" y="0">r</tspan><tspan x="54.55" y="0">on s</tspan><tspan class="cls-14" x="74.46" y="0">c</tspan><tspan x="79.81" y="0">andens B</tspan><tspan class="cls-15" x="127.09" y="0">r</tspan><tspan x="130.77" y="0">asil</tspan></text>
    <use transform="translate(830.67 108.5) scale(.4)" xlink:href="#image"/>
    <text class="cls-4" transform="translate(829.32 64.37)"><tspan x="0" y="0">Фил</tspan><tspan class="cls-19" x="27.13" y="0">о</tspan><tspan x="34.78" y="0">дендрон с</tspan><tspan class="cls-10" x="100.62" y="0">к</tspan><tspan x="107.67" y="0">анденс Б</tspan><tspan class="cls-22" x="165.44" y="0">р</tspan><tspan class="cls-27" x="173.64" y="0">а</tspan><tspan x="180.6" y="0">зил</tspan></text>
    <text class="cls-11" transform="translate(855.66 81.77)"><tspan x="0" y="0">Philodend</tspan><tspan class="cls-15" x="50.87" y="0">r</tspan><tspan x="54.55" y="0">on s</tspan><tspan class="cls-14" x="74.46" y="0">c</tspan><tspan x="79.81" y="0">andens B</tspan><tspan class="cls-15" x="127.09" y="0">r</tspan><tspan x="130.77" y="0">asil</tspan></text>
    <rect class="cls-35" x="998.85" y="370.31" width="68" height="19" rx="9.5" ry="9.5"/>
    <rect class="cls-20" x="786.67" y="370.21" width="194" height="19" rx="9.5" ry="9.5"/>
    <rect class="cls-21" x="1659.59" y="369.93" width="68" height="19" rx="9.5" ry="9.5"/>
    <rect class="cls-41" x="1448.59" y="369.93" width="194" height="19" rx="9.5" ry="9.5"/>
    <text class="cls-13" transform="translate(857.2 382.66)"><tspan x="0" y="0">Ароидные</tspan></text>
    <text class="cls-5" transform="translate(1030.66 382.81)"><tspan x="0" y="0">10</tspan></text>
    <use transform="translate(1007.67 372.5) scale(.03)" xlink:href="#image-2"/>
    <g>
      <g>
        <rect class="cls-33" x="2.5" y="115.93" width="295" height="395" rx="17.5" ry="17.5"/>
        <path class="cls-3" d="m280,118.43c8.27,0,15,6.73,15,15v360c0,8.27-6.73,15-15,15H20c-8.27,0-15-6.73-15-15V133.43c0-8.27,6.73-15,15-15h260m0-5H20c-11.05,0-20,8.95-20,20v360c0,11.05,8.95,20,20,20h260c11.05,0,20-8.95,20-20V133.43c0-11.05-8.95-20-20-20h0Z"/>
      </g>
      <use transform="translate(53.5 221.93) scale(.4)" xlink:href="#image"/>
      <text class="cls-4" transform="translate(52.14 177.8)"><tspan x="0" y="0">Фил</tspan><tspan class="cls-19" x="27.13" y="0">о</tspan><tspan x="34.78" y="0">дендрон с</tspan><tspan class="cls-10" x="100.62" y="0">к</tspan><tspan x="107.67" y="0">анденс Б</tspan><tspan class="cls-22" x="165.44" y="0">р</tspan><tspan class="cls-27" x="173.64" y="0">а</tspan><tspan x="180.6" y="0">зил</tspan></text>
      <text class="cls-11" transform="translate(78.49 195.21)"><tspan x="0" y="0">Philodend</tspan><tspan class="cls-15" x="50.87" y="0">r</tspan><tspan x="54.55" y="0">on s</tspan><tspan class="cls-14" x="74.46" y="0">c</tspan><tspan x="79.81" y="0">andens B</tspan><tspan class="cls-15" x="127.09" y="0">r</tspan><tspan x="130.77" y="0">asil</tspan></text>
      <rect class="cls-30" x="221.87" y="483.09" width="68" height="19" rx="9.5" ry="9.5"/>
      <rect class="cls-42" x="10.87" y="483.09" width="194" height="19" rx="9.5" ry="9.5"/>
      <text class="cls-13" transform="translate(80.2 495.66)"><tspan x="0" y="0">Ароидные</tspan></text>
      <text class="cls-5" transform="translate(253.66 495.81)"><tspan x="0" y="0">10</tspan></text>
      <use transform="translate(230.67 485.5) scale(.03)" xlink:href="#image-2"/>
    </g>
    <text class="cls-13" transform="translate(1517.2 382.66)"><tspan x="0" y="0">Ароидные</tspan></text>
    <text class="cls-5" transform="translate(1690.66 382.81)"><tspan x="0" y="0">10</tspan></text>
    <use transform="translate(1667.67 372.5) scale(.03)" xlink:href="#image-2"/>
  </g>
</svg>