<?xml version="1.0" encoding="UTF-8"?>
<svg id="_Слой_2" data-name="Слой 2" xmlns="http://www.w3.org/2000/svg" viewBox="0 0 319.95 205.33">
  <defs>
    <style>
      .cls-1 {
        fill: #98c8ed;
      }

      .cls-2 {
        fill: #211f1e;
      }

      .cls-3 {
        fill: #ffac33;
      }

      .cls-4 {
        font-family: MontserratRoman-Light, Montserrat;
        font-size: 185.15px;
        font-variation-settings: 'wght' 300;
        font-weight: 300;
      }
    </style>
  </defs>
  <g id="_Слой_1-2" data-name="Слой 1">
    <g>
      <path class="cls-1" d="m208.73,144.72c.04-.13,0-2.04,0-2.17l-3.75-10.83h-10l-3.57,9.74c0,.13-1.13,3.12-1.08,3.25-3.03.84-.34,3.4-.34,5.22,0,2.7,4.48,4.89,10,4.89s7.66-1.99,7.66-4.7c0-1.82,1.08-3.25,1.08-4.33v-1.08Z"/>
      <path class="cls-2" d="m206.97,135.1v-47.27c0-3.86-3.14-7-7-7s-7,3.14-7,7v47.26c-3.11,2.24-5,5.87-5,9.73,0,6.62,5.38,12,12,12s12-5.37,12-11.99c0-3.86-1.89-7.49-5-9.73h0Zm-7,17.72c-4.41,0-8-3.58-8-8,0-2.83,1.54-5.48,4-6.92.62-.35,1-1.02,1-1.73v-5.6s0-4,0-4v-38.74c0-1.65,1.34-3,3-3s3,1.34,3,3v48.34c0,.71.38,1.38,1,1.73,2.47,1.43,4,4.08,4,6.92,0,4.4-3.58,7.99-8,7.99Z"/>
    </g>
    <path class="cls-1" d="m199.98,54.85c-1.86,0-3.63-.38-5.24-1.06-6.68-2.84-8.98-11.17-4.82-17.12l10.06-14.37,10.06,14.37c4.16,5.95,1.86,14.28-4.82,17.12-1.61.68-3.38,1.06-5.24,1.06Z"/>
    <g>
      <path class="cls-3" d="m31.16,51.69s0-1.78,1.78-1.78,1.78,1.78,1.78,1.78v1.78s0,1.78-1.78,1.78-1.78-1.78-1.78-1.78v-1.78Zm16.03,12.47s1.78,0,1.78,1.78-1.78,1.78-1.78,1.78h-1.78s-1.78,0-1.78-1.78,1.78-1.78,1.78-1.78h1.78Zm-26.72,0s1.78,0,1.78,1.78-1.78,1.78-1.78,1.78h-1.78s-1.78,0-1.78-1.78,1.78-1.78,1.78-1.78h1.78Zm4.56-7.76s1.26,1.26,0,2.52-2.52,0-2.52,0l-1.26-1.26s-1.26-1.26,0-2.52c1.26-1.26,2.52,0,2.52,0l1.26,1.26Zm18.7,18.7s1.26,1.26,0,2.52c-1.26,1.26-2.52,0-2.52,0l-1.26-1.26s-1.26-1.26,0-2.52,2.52,0,2.52,0l1.26,1.26h0Zm-.37-16.19s-1.26,1.26-2.52,0,0-2.52,0-2.52l1.26-1.26s1.26-1.26,2.52,0,0,2.52,0,2.52l-1.26,1.26h0Zm-18.7,18.7s-1.26,1.26-2.52,0,0-2.52,0-2.52l1.26-1.26s1.26-1.26,2.52,0,0,2.52,0,2.52l-1.26,1.26h0Zm6.49.78s0-1.78,1.78-1.78,1.78,1.78,1.78,1.78v1.78s0,1.78-1.78,1.78-1.78-1.78-1.78-1.78v-1.78Z"/>
      <circle class="cls-3" cx="32.95" cy="65.94" r="8.91"/>
    </g>
  </g>
  <g id="_Слой_2-2" data-name="Слой 2">
    <g>
      <path d="m0,155.68V21.9h35.26c8.24,0,15.31,1.79,21.21,5.35,5.9,3.57,10.44,8.7,13.63,15.39,3.18,6.69,4.78,14.81,4.78,24.37s-1.59,17.29-4.78,23.98c-3.19,6.69-7.73,11.85-13.63,15.48-5.9,3.63-12.97,5.45-21.21,5.45H3.94l3.23-4.59v48.35H0Zm7.17-47.78l-3.23-4.59h31.33c10.58,0,18.61-3.18,24.09-9.56,5.48-6.37,8.22-15.29,8.22-26.76s-2.74-20.55-8.22-26.85c-5.48-6.3-13.51-9.46-24.09-9.46H3.94l3.23-4.78v81.99Zm61.11,47.78l-25.57-48.54h8.15l25.57,48.54h-8.15Z"/>
      <path d="m108.32,146.89h60.69v8.79h-67.86V21.9h65.75v8.79h-58.59v116.2Zm-.84-63.45h53.25v8.6h-53.25v-8.6Z"/>
    </g>
    <text class="cls-4" transform="translate(214.29 157.38) scale(.7 1)"><tspan x="0" y="0">N</tspan></text>
  </g>
</svg>