<?xml version="1.0" encoding="UTF-8"?>
<svg id="_Слой_2" data-name="Слой 2" xmlns="http://www.w3.org/2000/svg" viewBox="0 0 54 54">
  <defs>
    <style>
      .cls-1 {
        fill: #ffac33;
      }
    </style>
  </defs>
  <g id="_Слой_1-2" data-name="Слой 1">
    <g>
      <path class="cls-1" d="m24,3s0-3,3-3,3,3,3,3v3s0,3-3,3-3-3-3-3v-3Zm27,21s3,0,3,3-3,3-3,3h-3s-3,0-3-3,3-3,3-3h3Zm-45,0s3,0,3,3-3,3-3,3h-3s-3,0-3-3,3-3,3-3h3Zm7.68-13.06s2.12,2.12,0,4.24-4.24,0-4.24,0l-2.12-2.12s-2.12-2.12,0-4.24c2.12-2.12,4.24,0,4.24,0l2.12,2.12Zm31.5,31.5s2.12,2.12,0,4.24c-2.12,2.12-4.24,0-4.24,0l-2.12-2.12s-2.12-2.12,0-4.24,4.24,0,4.24,0l2.12,2.12h0Zm-.62-27.26s-2.12,2.12-4.24,0,0-4.24,0-4.24l2.12-2.12s2.12-2.12,4.24,0,0,4.24,0,4.24l-2.12,2.12h0Zm-31.5,31.5s-2.12,2.12-4.24,0,0-4.24,0-4.24l2.12-2.12s2.12-2.12,4.24,0,0,4.24,0,4.24l-2.12,2.12h0Zm10.94,1.32s0-3,3-3,3,3,3,3v3s0,3-3,3-3-3-3-3v-3Z"/>
      <circle class="cls-1" cx="27" cy="27" r="15"/>
    </g>
  </g>
</svg>