<?xml version="1.0" encoding="UTF-8"?>
<svg id="_Слой_2" data-name="Слой 2" xmlns="http://www.w3.org/2000/svg" viewBox="0 0 22.17 70.18">
  <defs>
    <style>
      .cls-1 {
        fill: #211f1e;
      }

      .cls-2 {
        fill: #00749f;
      }
    </style>
  </defs>
  <g id="_Слой_1-2" data-name="Слой 1">
    <g>
      <path class="cls-2" d="m19.17,59c.04-.12,0-1.88,0-2l-3.47-10H6.47l-3.3,9c0,.12-1.04,2.88-1,3-2.8.78-.32,3.14-.32,4.82,0,2.5,4.13,4.52,9.24,4.52s7.08-1.84,7.08-4.34c0-1.68,1-3,1-4v-1Z"/>
      <path class="cls-1" d="m17.54,50.12V6.47c0-3.56-2.9-6.47-6.47-6.47s-6.47,2.9-6.47,6.47v43.65c-2.87,2.07-4.61,5.42-4.61,8.98,0,6.11,4.97,11.08,11.08,11.08s11.09-4.96,11.09-11.07c0-3.56-1.74-6.91-4.62-8.98h0Zm-6.47,16.37c-4.08,0-7.39-3.31-7.39-7.39,0-2.62,1.42-5.06,3.69-6.39.57-.33.92-.94.92-1.6v-3.33h.92c.51,0,.92-.42.92-.92s-.42-.92-.92-.92h-.92v-3.69h.92c.51,0,.92-.42.92-.92s-.42-.92-.92-.92h-.92v-3.69h.92c.51,0,.92-.42.92-.92s-.42-.92-.92-.92h-.92v-3.69h.92c.51,0,.92-.42.92-.92s-.42-.92-.92-.92h-.92v-3.69h.92c.51,0,.92-.42.92-.92s-.42-.92-.92-.92h-.92v-3.69h.92c.51,0,.92-.42.92-.92s-.42-.92-.92-.92h-.92v-3.69h.92c.51,0,.92-.42.92-.92s-.42-.92-.92-.92h-.92v-3.73h.92c.51,0,.92-.42.92-.92s-.42-.92-.92-.92h-.92v-.69c0-1.52,1.24-2.77,2.77-2.77s2.77,1.24,2.77,2.77v44.65c0,.66.35,1.27.92,1.6,2.28,1.32,3.69,3.77,3.69,6.39,0,4.07-3.31,7.38-7.39,7.38Z"/>
    </g>
  </g>
</svg>