<?xml version="1.0" encoding="UTF-8"?>
<svg id="_Слой_2" data-name="Слой 2" xmlns="http://www.w3.org/2000/svg" viewBox="0 0 22 69.65">
  <defs>
    <style>
      .cls-1 {
        fill: #df0012;
      }

      .cls-2 {
        fill: #211f1e;
      }
    </style>
  </defs>
  <g id="_Слой_1-2" data-name="Слой 1">
    <g>
      <path class="cls-1" d="m15,50.47c.04-.32.34-7.51.34-7.85V7.47H6.11v35.14c0,.34-.15,7.53-.11,7.86-2.8,2.18-4,1.29-4,6,0,6.99,3.62,10.78,8.73,10.78s9.27-3.79,9.27-10.78c0-4.71-2.2-3.83-5-6h0Z"/>
      <path class="cls-2" d="m17.41,49.74V6.42c0-3.54-2.88-6.42-6.42-6.42s-6.42,2.88-6.42,6.42v43.32c-2.85,2.06-4.58,5.38-4.58,8.92,0,6.07,4.94,11,11,11s11-4.92,11-10.99c0-3.54-1.73-6.86-4.59-8.92h0Zm-6.42,16.25c-4.05,0-7.33-3.29-7.33-7.33,0-2.6,1.41-5.02,3.67-6.34.57-.32.91-.93.91-1.59v-3.3h.91c.51,0,.91-.41.91-.91s-.41-.91-.91-.91h-.91v-3.67h.91c.51,0,.91-.41.91-.91s-.41-.91-.91-.91h-.91v-3.67h.91c.51,0,.91-.41.91-.91s-.41-.91-.91-.91h-.91v-3.67h.91c.51,0,.91-.41.91-.91s-.41-.91-.91-.91h-.91v-3.67h.91c.51,0,.91-.41.91-.91s-.41-.91-.91-.91h-.91v-3.67h.91c.51,0,.91-.41.91-.91s-.41-.91-.91-.91h-.91v-3.67h.91c.51,0,.91-.41.91-.91s-.41-.91-.91-.91h-.91v-3.7h.91c.51,0,.91-.41.91-.91s-.41-.91-.91-.91h-.91v-.69c0-1.51,1.23-2.75,2.75-2.75s2.75,1.23,2.75,2.75v44.32c0,.66.35,1.26.91,1.59,2.27,1.31,3.67,3.74,3.67,6.34,0,4.04-3.29,7.32-7.33,7.32Z"/>
    </g>
  </g>
</svg>