<?xml version="1.0" encoding="UTF-8"?>
<svg id="_Слой_2" data-name="Слой 2" xmlns="http://www.w3.org/2000/svg" viewBox="0 0 40.57 54.37">
  <g id="_Слой_1-2" data-name="Слой 1">
    <path d="m20.29,3.49l15.16,21.66c3,4.29,3.89,9.63,2.45,14.66-1.42,4.95-4.94,8.94-9.65,10.94-2.52,1.07-5.2,1.61-7.97,1.61s-5.44-.54-7.97-1.61c-4.71-2-8.23-5.99-9.65-10.94-1.44-5.03-.55-10.38,2.45-14.66L20.29,3.49m0-3.49L3.49,24c-6.95,9.94-3.11,23.85,8.05,28.6,2.69,1.14,5.64,1.77,8.75,1.77s6.06-.63,8.75-1.77c11.16-4.74,15.01-18.66,8.05-28.6L20.29,0h0Z"/>
  </g>
</svg>